<svg xmlns="http://www.w3.org/2000/svg" viewBox="0 0 442.219 442.219" fill="#DB5461">
  <defs/>
  <path d="M339.734 133.344c22.749 0 41.255-18.507 41.255-41.255s-18.507-41.255-41.255-41.255-41.254 18.507-41.254 41.255 18.507 41.255 41.254 41.255zm0-64.51c12.823 0 23.255 10.432 23.255 23.255s-10.432 23.255-23.255 23.255c-12.822 0-23.254-10.432-23.254-23.255s10.432-23.255 23.254-23.255zM104.157 308.875c-22.748 0-41.254 18.507-41.254 41.255s18.507 41.255 41.254 41.255c22.749 0 41.255-18.507 41.255-41.255s-18.507-41.255-41.255-41.255zm0 64.51c-12.822 0-23.254-10.432-23.254-23.255s10.432-23.255 23.254-23.255c12.823 0 23.255 10.432 23.255 23.255s-10.432 23.255-23.255 23.255zm314.18-115.097c-11.108-27.495-38.254-46.179-68.207-46.179H247.18c-3.739-10.801-14.014-18.578-26.07-18.578s-22.331 7.777-26.07 18.578H92.089c-21.525 0-41.133-12.788-50.211-31.936 7.956-4.844 13.279-13.599 13.279-23.574s-5.323-18.731-13.279-23.575c9.078-19.147 28.687-31.936 50.211-31.936h174.684c4.45 36.306 35.474 64.511 72.961 64.511 40.534 0 73.51-32.977 73.51-73.511 0-40.533-32.977-73.51-73.51-73.51-37.488 0-68.511 28.205-72.961 64.51H92.089c-29.952 0-57.099 18.684-68.208 46.179C10.417 131.08 0 142.646 0 156.6s10.417 25.519 23.881 27.331c11.108 27.495 38.255 46.179 68.208 46.179H195.04c3.739 10.801 14.014 18.578 26.07 18.578s22.331-7.777 26.07-18.578h102.95c21.525 0 41.133 12.788 50.21 31.936-7.956 4.844-13.279 13.599-13.279 23.574s5.323 18.731 13.279 23.575c-9.077 19.147-28.686 31.936-50.21 31.936H177.12c-4.451-36.306-35.475-64.511-72.963-64.511-40.533 0-73.509 32.977-73.509 73.511 0 40.533 32.976 73.51 73.509 73.51 37.489 0 68.513-28.205 72.963-64.51h173.01c29.953 0 57.099-18.684 68.207-46.179 13.465-1.813 23.882-13.379 23.882-27.332s-10.417-25.519-23.882-27.332zM339.734 36.579c30.608 0 55.51 24.901 55.51 55.51s-24.902 55.511-55.51 55.511c-30.608 0-55.509-24.902-55.509-55.511s24.901-55.51 55.509-55.51zM29.085 166.06c-.074.01-.147.021-.222.032-.42.057-.849.086-1.285.086-5.282 0-9.579-4.297-9.579-9.578 0-5.282 4.297-9.579 9.579-9.579.434 0 .861.029 1.28.085.077.013.153.023.23.034 4.566.727 8.067 4.692 8.067 9.46.001 4.768-3.502 8.735-8.07 9.46zm192.025 64.628c-5.281 0-9.578-4.297-9.578-9.578s4.296-9.578 9.578-9.578 9.578 4.297 9.578 9.578-4.297 9.578-9.578 9.578zM104.157 405.64c-30.608 0-55.509-24.901-55.509-55.51s24.901-55.511 55.509-55.511c30.609 0 55.511 24.902 55.511 55.511s-24.902 55.51-55.511 55.51zm310.482-110.442c-.433 0-.86-.029-1.278-.085-.078-.013-.156-.024-.234-.034-4.565-.728-8.065-4.693-8.065-9.46 0-4.769 3.502-8.734 8.07-9.46.075-.01.149-.021.224-.032.42-.057.849-.086 1.284-.086 5.282 0 9.58 4.297 9.58 9.578-.001 5.282-4.299 9.579-9.581 9.579z"/>
</svg>
