<svg xmlns="http://www.w3.org/2000/svg" viewBox="0 0 60 60" fill="#6FD6A6">
  <defs/>
  <path d="M10.5 7.069c-2.481 0-4.5 2.019-4.5 4.5s2.019 4.5 4.5 4.5 4.5-2.019 4.5-4.5-2.019-4.5-4.5-4.5zm0 7c-1.378 0-2.5-1.121-2.5-2.5s1.122-2.5 2.5-2.5 2.5 1.121 2.5 2.5-1.122 2.5-2.5 2.5z"/>
  <circle cx="50" cy="10.069" r="1"/>
  <circle cx="46" cy="10.069" r="1"/>
  <circle cx="52" cy="13.069" r="1"/>
  <circle cx="48" cy="13.069" r="1"/>
  <circle cx="42" cy="10.069" r="1"/>
  <circle cx="44" cy="13.069" r="1"/>
  <circle cx="38" cy="10.069" r="1"/>
  <circle cx="40" cy="13.069" r="1"/>
  <circle cx="34" cy="10.069" r="1"/>
  <circle cx="36" cy="13.069" r="1"/>
  <path d="M60 17.46V5.677c0-2.541-2.067-4.608-4.608-4.608H4.608C2.067 1.069 0 3.136 0 5.677V17.46c0 1.469.703 2.764 1.777 3.608C.703 21.913 0 23.208 0 24.677V36.46c0 2.541 2.067 4.608 4.608 4.608h50.784c2.541 0 4.608-2.067 4.608-4.608V24.677c0-1.469-.703-2.764-1.777-3.608C59.297 20.224 60 18.929 60 17.46zm-2 7.217V36.46c0 1.438-1.17 2.608-2.608 2.608H4.608C3.17 39.069 2 37.899 2 36.46V24.677c0-1.438 1.17-2.608 2.608-2.608h50.783c1.439 0 2.609 1.17 2.609 2.608zM4.608 20.069C3.17 20.069 2 18.899 2 17.46V5.677c0-1.438 1.17-2.608 2.608-2.608h50.783C56.83 3.069 58 4.239 58 5.677V17.46c0 1.438-1.17 2.608-2.608 2.608H4.608z"/>
  <path d="M10.5 35.069c2.481 0 4.5-2.019 4.5-4.5s-2.019-4.5-4.5-4.5-4.5 2.018-4.5 4.5 2.019 4.5 4.5 4.5zm0-7c1.378 0 2.5 1.121 2.5 2.5s-1.122 2.5-2.5 2.5-2.5-1.121-2.5-2.5 1.122-2.5 2.5-2.5zM31.473 51.455c.229.129.439.288.626.471.195.191.448.286.7.286.259 0 .518-.101.714-.3.387-.395.38-1.027-.014-1.414-.311-.305-.66-.567-1.039-.783-.483-.271-1.091-.105-1.363.377-.272.48-.104 1.09.376 1.363zM31.504 56.666c-.225.132-.467.232-.719.3-.533.144-.849.692-.706 1.226.121.446.524.74.965.74.086 0 .173-.011.261-.034.422-.114.828-.283 1.205-.503.477-.278.639-.891.361-1.368-.278-.478-.89-.638-1.367-.361zM34 53.045c-.552 0-1 .471-1 1.023 0 .264-.034.524-.101.775-.143.533.175 1.081.708 1.224.086.023.173.034.258.034.442 0 .846-.295.966-.742.112-.418.169-.853.169-1.29v-.047c0-.553-.448-.977-1-.977zM28.51 56.672c-.227-.13-.436-.289-.621-.473-.392-.39-1.024-.386-1.414.004-.39.392-.388 1.025.004 1.414.31.308.659.574 1.038.791.157.09.327.132.496.132.347 0 .684-.181.869-.503.273-.479.107-1.09-.372-1.365zM28.667 49.25c-.42.115-.824.287-1.2.508-.476.28-.635.893-.355 1.369.187.316.521.493.863.493.172 0 .347-.044.506-.138.226-.133.467-.235.719-.305.532-.146.845-.697.698-1.229-.148-.532-.698-.843-1.231-.698zM27 54.069c0-.258.033-.513.097-.759.139-.534-.181-1.08-.716-1.22-.535-.138-1.081.181-1.22.716-.107.41-.161.835-.161 1.284l1 .002h-1c0 .553.447.988 1 .988.553.001 1-.458 1-1.011z"/>
  <circle cx="50" cy="29.069" r="1"/>
  <circle cx="46" cy="29.069" r="1"/>
  <circle cx="52" cy="32.069" r="1"/>
  <circle cx="48" cy="32.069" r="1"/>
  <circle cx="42" cy="29.069" r="1"/>
  <circle cx="44" cy="32.069" r="1"/>
  <circle cx="38" cy="29.069" r="1"/>
  <circle cx="40" cy="32.069" r="1"/>
  <circle cx="34" cy="29.069" r="1"/>
  <circle cx="36" cy="32.069" r="1"/>
  <path d="M22 53.069h-1c-.552 0-1 .447-1 1s.448 1 1 1h1c.552 0 1-.447 1-1s-.448-1-1-1zM14 53.069h-1c-.552 0-1 .447-1 1s.448 1 1 1h1c.552 0 1-.447 1-1s-.448-1-1-1zM18 53.069h-1c-.552 0-1 .447-1 1s.448 1 1 1h1c.552 0 1-.447 1-1s-.448-1-1-1zM2 53.069H1c-.552 0-1 .447-1 1s.448 1 1 1h1c.552 0 1-.447 1-1s-.448-1-1-1zM6 53.069H5c-.552 0-1 .447-1 1s.448 1 1 1h1c.552 0 1-.447 1-1s-.448-1-1-1zM10 53.069H9c-.552 0-1 .447-1 1s.448 1 1 1h1c.552 0 1-.447 1-1s-.448-1-1-1zM39 53.069h-1c-.552 0-1 .447-1 1s.448 1 1 1h1c.552 0 1-.447 1-1s-.448-1-1-1zM47 53.069h-1c-.552 0-1 .447-1 1s.448 1 1 1h1c.552 0 1-.447 1-1s-.448-1-1-1zM43 53.069h-1c-.552 0-1 .447-1 1s.448 1 1 1h1c.552 0 1-.447 1-1s-.448-1-1-1zM59 53.069h-1c-.552 0-1 .447-1 1s.448 1 1 1h1c.552 0 1-.447 1-1s-.448-1-1-1zM51 53.069h-1c-.552 0-1 .447-1 1s.448 1 1 1h1c.552 0 1-.447 1-1s-.448-1-1-1zM55 53.069h-1c-.552 0-1 .447-1 1s.448 1 1 1h1c.552 0 1-.447 1-1s-.448-1-1-1zM31 47.069v-1c0-.553-.448-1-1-1s-1 .447-1 1v1c0 .553.448 1 1 1s1-.447 1-1zM29 42.069v1c0 .553.448 1 1 1s1-.447 1-1v-1c0-.553-.448-1-1-1s-1 .447-1 1z"/>
</svg>
